<svg version="1.1" xmlns="http://www.w3.org/2000/svg" xmlns:xlink="http://www.w3.org/1999/xlink" viewBox="0 0 172 172"><g fill="none" fill-rule="nonzero" stroke="none" stroke-width="1" stroke-linecap="butt" stroke-linejoin="miter" stroke-miterlimit="10" stroke-dasharray="" stroke-dashoffset="0" font-family="none" font-weight="none" font-size="none" text-anchor="none" style="mix-blend-mode: normal"><path d="M0,172v-172h172v172z" fill="none"></path><g fill="#ffffff"><path d="M44.66625,3.39297c-1.89722,0.02966 -3.41223,1.58976 -3.38625,3.48703v3.44v6.88h6.88v-6.88v-3.44c0.01273,-0.92983 -0.35149,-1.82522 -1.00967,-2.48214c-0.65819,-0.65692 -1.55427,-1.01942 -2.48408,-1.00489zM65.30625,3.39297c-1.89722,0.02966 -3.41223,1.58976 -3.38625,3.48703v3.44v6.88h6.88v-6.88v-3.44c0.01273,-0.92983 -0.35149,-1.82522 -1.00967,-2.48214c-0.65819,-0.65692 -1.55427,-1.01942 -2.48408,-1.00489zM85.94625,3.39297c-1.89722,0.02966 -3.41223,1.58976 -3.38625,3.48703v3.44v6.88h6.88v-6.88v-3.44c0.01273,-0.92983 -0.35149,-1.82522 -1.00967,-2.48214c-0.65819,-0.65692 -1.55427,-1.01942 -2.48408,-1.00489zM106.58625,3.39297c-1.89722,0.02966 -3.41223,1.58976 -3.38625,3.48703v3.44v6.88h6.88v-6.88v-3.44c0.01273,-0.92983 -0.35149,-1.82522 -1.00967,-2.48214c-0.65819,-0.65692 -1.55427,-1.01942 -2.48408,-1.00489zM127.22625,3.39297c-1.89722,0.02966 -3.41223,1.58976 -3.38625,3.48703v3.44v6.88h6.88v-6.88v-3.44c0.01273,-0.92983 -0.35149,-1.82522 -1.00967,-2.48214c-0.65819,-0.65692 -1.55427,-1.01942 -2.48408,-1.00489zM30.96,20.64c-5.70008,0 -10.32,4.61992 -10.32,10.32v110.08c0,5.70008 4.61992,10.32 10.32,10.32h110.08c5.70008,0 10.32,-4.61992 10.32,-10.32v-110.08c0,-5.70008 -4.61992,-10.32 -10.32,-10.32zM6.88,41.28c-1.24059,-0.01754 -2.39452,0.63425 -3.01993,1.7058c-0.62541,1.07155 -0.62541,2.39684 0,3.46839c0.62541,1.07155 1.77935,1.72335 3.01993,1.7058h3.44h6.88v-6.88h-6.88zM154.8,41.28v6.88h6.88h3.44c1.24059,0.01754 2.39452,-0.63425 3.01993,-1.7058c0.62541,-1.07155 0.62541,-2.39684 0,-3.46839c-0.62541,-1.07155 -1.77935,-1.72335 -3.01993,-1.7058h-3.44zM6.88,61.92c-1.24059,-0.01754 -2.39452,0.63425 -3.01993,1.7058c-0.62541,1.07155 -0.62541,2.39684 0,3.46839c0.62541,1.07155 1.77935,1.72335 3.01993,1.7058h3.44h6.88v-6.88h-6.88zM55.04,61.92h61.92v48.16h-61.92zM154.8,61.92v6.88h6.88h3.44c1.24059,0.01754 2.39452,-0.63425 3.01993,-1.7058c0.62541,-1.07155 0.62541,-2.39684 0,-3.46839c-0.62541,-1.07155 -1.77935,-1.72335 -3.01993,-1.7058h-3.44zM6.88,82.56c-1.24059,-0.01754 -2.39452,0.63425 -3.01993,1.7058c-0.62541,1.07155 -0.62541,2.39684 0,3.46839c0.62541,1.07155 1.77935,1.72335 3.01993,1.7058h3.44h6.88v-6.88h-6.88zM154.8,82.56v6.88h6.88h3.44c1.24059,0.01754 2.39452,-0.63425 3.01993,-1.7058c0.62541,-1.07155 0.62541,-2.39684 0,-3.46839c-0.62541,-1.07155 -1.77935,-1.72335 -3.01993,-1.7058h-3.44zM6.88,103.2c-1.24059,-0.01754 -2.39452,0.63425 -3.01993,1.7058c-0.62541,1.07155 -0.62541,2.39684 0,3.46839c0.62541,1.07155 1.77935,1.72335 3.01993,1.7058h3.44h6.88v-6.88h-6.88zM154.8,103.2v6.88h6.88h3.44c1.24059,0.01754 2.39452,-0.63425 3.01993,-1.7058c0.62541,-1.07155 0.62541,-2.39684 0,-3.46839c-0.62541,-1.07155 -1.77935,-1.72335 -3.01993,-1.7058h-3.44zM6.88,123.84c-1.24059,-0.01754 -2.39452,0.63425 -3.01993,1.7058c-0.62541,1.07155 -0.62541,2.39684 0,3.46839c0.62541,1.07155 1.77935,1.72335 3.01993,1.7058h3.44h6.88v-6.88h-6.88zM154.8,123.84v6.88h6.88h3.44c1.24059,0.01754 2.39452,-0.63425 3.01993,-1.7058c0.62541,-1.07155 0.62541,-2.39684 0,-3.46839c-0.62541,-1.07155 -1.77935,-1.72335 -3.01993,-1.7058h-3.44zM41.28,154.8v6.88v3.44c-0.01754,1.24059 0.63425,2.39452 1.7058,3.01993c1.07155,0.62541 2.39684,0.62541 3.46839,0c1.07155,-0.62541 1.72335,-1.77935 1.7058,-3.01993v-3.44v-6.88zM61.92,154.8v6.88v3.44c-0.01754,1.24059 0.63425,2.39452 1.7058,3.01993c1.07155,0.62541 2.39684,0.62541 3.46839,0c1.07155,-0.62541 1.72335,-1.77935 1.7058,-3.01993v-3.44v-6.88zM82.56,154.8v6.88v3.44c-0.01754,1.24059 0.63425,2.39452 1.7058,3.01993c1.07155,0.62541 2.39684,0.62541 3.46839,0c1.07155,-0.62541 1.72335,-1.77935 1.7058,-3.01993v-3.44v-6.88zM103.2,154.8v6.88v3.44c-0.01754,1.24059 0.63425,2.39452 1.7058,3.01993c1.07155,0.62541 2.39684,0.62541 3.46839,0c1.07155,-0.62541 1.72335,-1.77935 1.7058,-3.01993v-3.44v-6.88zM123.84,154.8v6.88v3.44c-0.01754,1.24059 0.63425,2.39452 1.7058,3.01993c1.07155,0.62541 2.39684,0.62541 3.46839,0c1.07155,-0.62541 1.72335,-1.77935 1.7058,-3.01993v-3.44v-6.88z"></path></g></g></svg>