<svg version="1.1" xmlns="http://www.w3.org/2000/svg" xmlns:xlink="http://www.w3.org/1999/xlink" viewBox="0 0 172 172"><g fill="none" fill-rule="nonzero" stroke="none" stroke-width="1" stroke-linecap="butt" stroke-linejoin="miter" stroke-miterlimit="10" stroke-dasharray="" stroke-dashoffset="0" font-family="none" font-weight="none" font-size="none" text-anchor="none" style="mix-blend-mode: normal"><path d="M0,172v-172h172v172z" fill="none"></path><g fill="#ffffff"><path d="M131.86667,78.83333l-1.29573,-2.72333c0,-12.67067 -6.16907,-15.49147 -12.66493,-19.18947c-0.00573,-0.01147 -0.00573,-0.02293 -0.01147,-0.0344c1.12373,-0.4816 2.62013,-1.04347 3.13613,-3.69227c3.61773,-1.06067 4.13373,-2.6488 4.64973,-4.2312c1.032,-0.52747 3.61773,-2.12133 3.61773,-5.29187c1.548,-1.06067 2.58573,-2.6488 2.06973,-4.75867c1.548,-2.12133 2.06973,-3.70373 1.548,-5.29187c2.06973,-2.6488 1.032,-4.2312 0.516,-5.81933c1.548,-3.17053 0,-6.35253 -4.13373,-5.81933c-1.548,-2.6488 -5.68173,-2.12133 -6.20347,-2.12133c-0.516,-1.06067 -1.548,-1.58813 -4.13373,-1.06067c-2.58573,-1.58813 -4.64973,-1.58813 -6.71947,-0.52747c-2.58573,-2.12133 -4.13373,-0.52747 -5.68173,0c-3.10173,-1.06067 -3.61773,0.52747 -5.16573,1.06067c-3.10173,-0.52747 -4.13373,1.06067 -5.68747,2.6488c0,0 -0.81987,-0.19493 -1.548,0c-5.03387,1.3416 -7.0692,6.64493 -8.15853,9.4084v0c-1.08933,-2.76347 -3.12467,-8.07253 -8.1528,-9.41987c-0.72813,-0.19493 -1.548,0 -1.548,0c-1.548,-1.58813 -2.58573,-3.17627 -5.68747,-2.6488c-1.548,-0.52173 -2.064,-2.10413 -5.16573,-1.05493c-1.548,-0.52747 -3.10173,-2.12133 -5.68173,0c-2.06973,-1.05493 -4.13947,-1.05493 -6.71947,0.52747c-2.59147,-0.52173 -3.62347,0.00573 -4.13947,1.0664c-0.516,0 -4.64973,-0.52747 -6.20347,2.12133c-4.13373,-0.5332 -5.6932,2.63733 -4.13373,5.81933c-0.52173,1.58813 -1.55373,3.17053 0.516,5.81933c-0.516,1.58813 0,3.17053 1.548,5.29187c-0.516,2.12133 0.516,3.70947 2.06973,4.75867c0,3.17053 2.58573,4.75867 3.61773,5.29187c0.516,1.58813 1.032,3.17053 4.64973,4.2312c0.516,2.6488 2.02387,3.20493 3.13613,3.69227c-0.00573,0.0172 -0.00573,0.02867 -0.01147,0.04013c-6.49587,3.69227 -12.66493,6.50733 -12.66493,19.18947l-1.29573,2.72333c-8.12987,4.75867 -14.19573,21.93 -2.72333,33.54c1.08933,3.70373 1.49067,4.13373 2.58,7.31573c2.43667,15.19333 13.77147,20.68013 16.48333,21.2076c3.79547,3.17053 6.364,4.89627 12.32667,7.0176c5.42373,5.29187 11.23733,6.88 17.2,6.88c5.96267,0 11.77627,-1.58813 17.2,-6.88c5.96267,-2.12133 8.5312,-3.84707 12.32667,-7.02333c2.71187,-0.52747 14.04667,-6.02 16.48333,-21.2076c1.08933,-3.17053 1.49067,-3.60627 2.58,-7.31573c11.46667,-11.60427 5.41227,-28.76987 -2.72333,-33.54zM124.37893,77.9676c-0.52747,5.16 -25.9032,-17.02227 -21.672,-17.53827c12.15467,-2.064 22.19947,4.644 21.672,17.53827zM98.81973,66.10533c0,3.72093 -5.22307,6.51307 -12.81973,6.54173c-7.6024,-0.0344 -12.81973,-2.8208 -12.81973,-6.54173c0,-3.11893 3.93307,-6.22067 8.31333,-7.62533h0.21213c1.42187,-0.4816 2.89533,-0.76827 4.29427,-0.78547c1.39893,0.01147 2.86667,0.30387 4.3,0.78547h0.21213c4.38027,1.41613 8.3076,4.51787 8.3076,7.62533zM95.0472,28.29973c0,0.94027 0.45867,1.4104 0.45867,1.88627c1.38173,-1.4104 2.29907,-2.82653 3.6808,-4.23693c0,0.94027 -0.45867,1.4104 0.45867,2.35067c0.92307,-1.4104 1.83467,-2.35067 3.6808,-3.29667c-0.92307,1.4104 0,1.88627 0.45867,2.35067c1.38173,-0.94027 2.29907,-1.88627 4.60387,-2.82653c-0.45867,0.94027 -1.38173,1.4104 -0.45867,2.35067c1.38173,-0.94027 2.29907,-1.4104 5.51547,-2.35067c-0.45867,0.94027 -1.83467,1.4104 -1.38173,2.35067c1.38173,-0.47013 3.22213,-0.94027 5.06253,-1.4104c-0.92307,0.94027 -1.84613,1.4104 -0.92307,1.88627c1.84613,-0.47013 3.6808,-1.4104 5.97987,-0.47013l-1.376,1.4104c0,0 3.22213,0 5.51547,0c-0.92307,1.4104 -1.83467,2.35067 -2.29907,4.23693c0,0 1.38173,0 2.29907,0c-0.92307,2.82653 -2.75773,3.29667 -3.22213,4.23693c0.45867,0.47013 1.38173,0.47013 2.75773,0c-0.92307,1.88627 -2.29907,2.82653 -3.6808,4.23693c0.45867,0.47013 0.92307,0.47013 2.29907,0c-1.38173,1.4104 -2.75773,2.35067 -4.13947,3.77253c0.45867,0.47013 1.38173,0.47013 2.29907,0.47013c-1.38173,1.4104 -3.6808,2.35067 -5.51547,3.29667c0.45867,0.94027 1.38173,0.47013 1.83467,0.47013c-1.38173,0.94027 -3.6808,1.88627 -5.51547,2.35067c0.45867,0.47013 0.92307,0.94027 1.83467,0.94027c-2.29907,1.4104 -5.51547,0.47013 -6.43853,1.4104c0,0.47013 0.92307,0.94027 1.38173,1.4104c-3.6808,0 -13.24973,0.55613 -15.09013,-6.9832c1.72,-2.35067 6.7768,-7.40173 11.50107,-10.30853c-5.80787,1.61107 -11.07107,5.16 -13.86893,7.09213c-7.35013,-3.75533 -1.85187,-12.85987 2.2876,-16.62667zM53.03333,49.02573c0.45867,0 1.38173,0.47013 1.83467,-0.47013c-1.83467,-0.95173 -4.13373,-1.88627 -5.51547,-3.3024c0.92307,0 1.83467,0 2.29907,-0.47013c-1.376,-1.41613 -2.75773,-2.3564 -4.1452,-3.7668c1.38173,0.47587 1.84613,0.47587 2.29907,0c-1.376,-1.4104 -2.752,-2.35067 -3.67507,-4.23693c1.38173,0.47013 2.29907,0.47013 2.75773,0c-0.45867,-0.946 -2.29333,-1.4104 -3.2164,-4.23693c0.92307,0 2.29907,0 2.29907,0c-0.45867,-1.88627 -1.376,-2.82653 -2.29907,-4.23693c2.29907,0 5.51547,0 5.51547,0l-1.376,-1.41613c2.29907,-0.94027 4.13947,0 5.97987,0.47013c0.92307,-0.47013 0,-0.94027 -0.92307,-1.88627c1.84613,0.47587 3.6808,0.95173 5.06253,1.41613c0.45867,-0.94027 -0.92307,-1.4104 -1.38173,-2.35067c3.22787,0.94027 4.13947,1.4104 5.52693,2.35067c0.92307,-0.94027 0,-1.4104 -0.45867,-2.35067c2.29907,0.94027 3.22213,1.88627 4.60387,2.82653c0.45867,-0.47013 1.38173,-0.94027 0.45867,-2.35067c1.8404,0.93453 2.75773,1.8748 3.6808,3.2852c0.92307,-0.94027 0.45867,-1.4104 0.45867,-2.35067c1.38173,1.4104 2.29907,2.82653 3.6808,4.23693c0,-0.47013 0.45867,-0.94027 0.45867,-1.88627c4.13947,3.77253 9.632,12.87133 2.2704,16.64387c-2.79787,-1.93787 -8.06107,-5.49253 -13.86893,-7.09787c4.73573,2.90107 9.78107,7.95213 11.50107,10.32c-1.84613,7.5336 -11.40933,6.9832 -15.09013,6.9832c0.45867,-0.47013 1.38173,-0.94027 1.38173,-1.4104c-0.92307,-0.94027 -4.13947,0 -6.43853,-1.4104c0.92307,0 1.38173,-0.47013 1.83467,-0.94027c-1.83467,-0.4816 -4.13373,-1.42187 -5.51547,-2.36213zM69.2988,60.42933c4.2312,0.516 -21.1388,22.69827 -21.672,17.53827c-0.5332,-12.89427 9.5116,-19.60227 21.672,-17.53827zM42.02533,106.66867c-5.75627,-4.6784 -7.67693,-17.79053 2.87813,-23.40347c6.71373,-1.40467 2.39653,25.74267 -2.87813,23.40347zM66.0996,132.60627c-2.74053,2.20733 -10.492,2.20733 -16.42027,-5.7448c-4.10507,-5.30333 -2.74053,-13.70267 -0.45293,-16.79293c3.19347,-2.6488 8.6688,0.88293 13.23253,6.18627c4.54653,4.85613 6.83413,13.69693 3.64067,16.35147zM60.1484,102.04187c-5.87667,-3.82413 -6.85133,-12.42413 -2.44813,-19.5908c4.40893,-7.16667 13.22107,-9.55747 19.09773,-5.73333c5.87667,3.82413 7.35013,12.9 2.44813,19.5908c-4.4032,6.68507 -13.21533,9.07587 -19.09773,5.73333zM86,147.92c-7.00613,-0.07453 -12.68787,-6.97173 -12.68787,-8.92107c0,-2.94693 6.23213,-3.77827 12.30947,-3.77827c0.11467,0 0.25227,0.01147 0.3784,0.02293c0.12613,0 0.25227,-0.02293 0.3784,-0.02293c6.06587,0 12.30947,0.83133 12.30947,3.77827c0,1.94933 -5.68173,8.84653 -12.68787,8.92107zM86.3956,129.71093c-0.13187,0 -0.26373,-0.0344 -0.38987,-0.0344c-0.13187,0 -0.26373,0.0344 -0.38987,0.0344c-7.90053,0 -14.31613,-5.7792 -14.31613,-13.00893c0,-7.19533 6.36973,-12.94587 14.71173,-12.99747c8.33627,0.04587 14.71173,5.80213 14.71173,12.99747c-0.01147,7.224 -6.4328,13.00893 -14.3276,13.00893zM92.7596,96.3028c-4.89627,-6.68507 -3.42853,-15.76667 2.44813,-19.5908c5.87667,-3.82413 14.6888,-1.43333 19.09773,5.73333c4.40893,7.16667 3.42853,15.76667 -2.44813,19.5908c-5.8824,3.34827 -14.69453,0.95747 -19.09773,-5.73333zM122.33213,126.85573c-5.92827,7.95213 -13.6912,7.95213 -16.42027,5.7448c-3.19347,-2.6488 -0.91733,-11.4896 3.65213,-16.35147c4.56373,-5.30333 10.03907,-8.8408 13.23253,-6.18627c2.27613,3.096 3.6464,11.4896 -0.4644,16.79293zM129.97467,106.66867c-5.27467,2.3392 -9.5976,-24.80813 -2.87813,-23.40347c10.5608,5.61293 8.64013,18.72507 2.87813,23.40347z"></path></g></g></svg>